Coordinates
version=1
nRows=27
nColumns=12
inDegrees=yes

Units are S.I. units (second, meters, Newtons, ...)
Angles are in degrees

endheader
time	SC_y	SC_z	SC_x	AC_y	AC_z	AC_x	GH_y	GH_z	GH_yy	EL_x	PS_y
       0.0              -45.25         -1.655          31.58          51.14         -19.47          3.887         -143.6          47.22          57.42          89.31          139.1
   0.04191              -45.24         -1.651          31.58          51.14         -19.47          3.885         -143.6          47.22          57.42           89.3          139.1
   0.08381              -45.24         -1.646          31.59          51.14         -19.46          3.881         -143.5          47.23          57.41           89.3          139.1
    0.1257              -45.24         -1.642          31.59          51.14         -19.46          3.878         -143.5          47.23          57.41          89.29          139.1
    0.1676              -45.23         -1.636          31.59          51.14         -19.46          3.875         -143.4          47.24          57.41          89.28          139.1
    0.2095              -45.23         -1.631          31.59          51.14         -19.46          3.871         -143.4          47.24           57.4          89.27          139.1
    0.2514              -45.22         -1.625          31.59          51.14         -19.46          3.867         -143.3          47.25           57.4          89.26          139.1
    0.2933              -45.22         -1.619           31.6          51.14         -19.45          3.863         -143.3          47.26          57.39          89.26          139.1
    0.3353              -45.21         -1.612           31.6          51.13         -19.45          3.858         -143.2          47.26          57.39          89.24          139.0
    0.3772               -45.2         -1.605           31.6          51.13         -19.45          3.853         -143.1          47.27          57.38          89.23          139.0
    0.4191               -45.2         -1.597           31.6          51.13         -19.45          3.848         -143.1          47.28          57.38          89.22          139.0
     0.461              -45.19         -1.589          31.61          51.13         -19.44          3.842         -143.0          47.29          57.37          89.21          139.0
    0.5029              -45.18          -1.58          31.61          51.13         -19.44          3.836         -142.9           47.3          57.36           89.2          139.0
    0.5448              -45.17          -1.57          31.61          51.13         -19.43           3.83         -142.8          47.31          57.35          89.18          139.0
    0.5867              -45.17          -1.56          31.62          51.12         -19.43          3.823         -142.7          47.32          57.35          89.16          139.0
    0.6286              -45.16         -1.548          31.62          51.12         -19.43          3.815         -142.6          47.33          57.34          89.15          139.0
    0.6705              -45.15         -1.536          31.62          51.12         -19.42          3.806         -142.5          47.34          57.33          89.13          139.0
    0.7124              -45.13         -1.523          31.63          51.12         -19.42          3.797         -142.3          47.36          57.32          89.11          139.0
    0.7543              -45.12         -1.508          31.63          51.11         -19.41          3.787         -142.2          47.37          57.31          89.08          139.0
    0.7962              -45.11         -1.492          31.64          51.11          -19.4          3.776         -142.0          47.39          57.29          89.06          139.0
    0.8381              -45.09         -1.474          31.65          51.11          -19.4          3.764         -141.8          47.41          57.28          89.03          138.9
      0.88              -45.08         -1.455          31.65           51.1         -19.39          3.751         -141.7          47.43          57.27           89.0          138.9
    0.9219              -45.06         -1.433          31.66           51.1         -19.38          3.737         -141.4          47.45          57.25          88.97          138.9
    0.9639              -45.04         -1.409          31.67          51.09         -19.37           3.72         -141.2          47.47          57.23          88.93          138.9
     1.006              -45.01         -1.383          31.68          51.09         -19.36          3.702         -141.0           47.5          57.21          88.89          138.9
     1.048              -44.99         -1.353          31.69          51.08         -19.35          3.682         -140.7          47.53          57.19          88.85          138.9
      1.09              -44.96          -1.32           31.7          51.07         -19.34           3.66         -140.3          47.57          57.16           88.8          138.8
